<svg xmlns="http://www.w3.org/2000/svg" width="512" height="512" viewBox="0 0 512 512">
<g fill="black">
<path d="M 269 183 268 184 268 186 269 187 271 187 272 188 273 188 278 193 278 194 279 195 279 199 280 200 280 306 279 307 279 312 278 313 278 314 274 318 273 318 272 319 269 319 268 320 268 323 365 323 365 321 366 320 366 314 367 313 367 308 368 307 368 302 369 301 369 295 370 294 370 289 371 288 371 286 366 286 366 287 365 288 365 289 364 290 364 292 362 294 362 295 361 296 361 297 359 299 359 300 348 311 347 311 345 313 344 313 343 314 341 314 340 315 338 315 337 316 332 316 331 317 313 317 312 316 308 316 307 315 306 315 304 313 304 312 303 311 303 195 304 194 304 193 305 192 305 191 307 189 308 189 309 188 310 188 311 187 313 187 313 183 Z" />
<path d="M 210 181 209 182 197 182 196 183 192 183 191 184 188 184 187 185 185 185 184 186 182 186 181 187 180 187 179 188 177 188 176 189 175 189 174 190 173 190 171 192 170 192 169 193 168 193 165 196 164 196 154 206 154 207 151 210 151 211 149 213 149 214 148 215 148 216 147 217 147 218 146 219 146 220 145 221 145 222 144 223 144 225 143 226 143 227 142 228 142 231 141 232 141 235 140 236 140 239 139 240 139 247 138 248 138 264 139 265 139 271 140 272 140 276 141 277 141 280 142 281 142 283 143 284 143 285 144 286 144 288 145 289 145 290 146 291 146 292 147 293 147 294 149 296 149 297 151 299 151 300 154 303 154 304 159 309 160 309 164 313 165 313 167 315 168 315 169 316 170 316 171 317 172 317 173 318 174 318 175 319 176 319 177 320 179 320 180 321 182 321 183 322 186 322 187 323 190 323 191 324 197 324 198 325 218 325 219 324 226 324 227 323 231 323 232 322 235 322 236 321 239 321 240 320 242 320 243 319 245 319 246 318 248 318 249 317 250 317 251 316 252 316 253 315 255 315 256 314 256 310 257 309 257 304 258 303 258 298 259 297 259 292 260 291 260 286 261 285 261 280 260 280 259 279 257 279 257 281 256 282 256 284 255 285 255 286 254 287 254 289 253 290 253 291 252 292 252 293 251 294 251 295 250 296 250 297 248 299 248 300 245 303 245 304 238 311 237 311 235 313 234 313 233 314 232 314 231 315 230 315 229 316 227 316 226 317 224 317 223 318 216 318 215 319 214 319 213 318 206 318 205 317 202 317 201 316 199 316 198 315 197 315 196 314 194 314 192 312 191 312 190 311 189 311 185 307 184 307 180 303 180 302 176 298 176 297 175 296 175 295 173 293 173 292 172 291 172 290 171 289 171 288 170 287 170 285 169 284 169 282 168 281 168 279 167 278 167 274 166 273 166 269 165 268 165 238 166 237 166 232 167 231 167 228 168 227 168 224 169 223 169 221 170 220 170 218 171 217 171 216 172 215 172 214 173 213 173 212 174 211 174 210 175 209 175 208 178 205 178 204 186 196 187 196 189 194 190 194 191 193 192 193 193 192 194 192 195 191 196 191 197 190 199 190 200 189 203 189 204 188 210 188 211 187 215 187 216 188 222 188 223 189 226 189 227 190 229 190 230 191 231 191 232 192 233 192 235 194 236 194 245 203 245 204 247 206 247 207 248 208 248 209 249 210 249 211 250 212 250 213 251 214 251 216 252 217 252 219 253 220 253 222 254 223 254 225 258 225 259 224 258 223 258 217 257 216 257 210 256 209 256 203 255 202 255 196 254 195 254 191 253 190 252 190 251 189 249 189 248 188 247 188 246 187 244 187 243 186 241 186 240 185 238 185 237 184 233 184 232 183 228 183 227 182 215 182 214 181 Z" />
</g>
</svg>